<?xml version="1.0" encoding="utf-8"?>
<!-- Generator: Adobe Illustrator 21.0.2, SVG Export Plug-In . SVG Version: 6.00 Build 0)  -->
<svg version="1.1" id="Capa_1" xmlns="http://www.w3.org/2000/svg" xmlns:xlink="http://www.w3.org/1999/xlink" x="0px" y="0px"
	 viewBox="0 0 355 177.5" style="enable-background:new 0 0 355 177.5;" xml:space="preserve">
<style type="text/css">
	.st0{fill:#B0894A;}
	.st1{fill:none;}
	.st2{font-family:'Hero-Light';}
	.st3{font-size:35.707px;}
</style>
<g>
	<path class="st0" d="M141.3,138.5h71.8V137h-71.8V138.5z"/>
	<polygon class="st0" points="157.1,150.7 159.9,156.2 166,157.1 161.6,161.4 162.6,167.6 157.1,164.7 151.6,167.6 152.7,161.4 
		148.3,157.1 154.4,156.2 	"/>
	<polygon class="st0" points="179.7,150.7 182.4,156.2 188.6,157.1 184.1,161.4 185.2,167.6 179.7,164.7 174.2,167.6 175.2,161.4 
		170.8,157.1 176.9,156.2 	"/>
	<polygon class="st0" points="202.6,150.7 205.4,156.2 211.5,157.1 207,161.4 208.1,167.6 202.6,164.7 197.1,167.6 198.2,161.4 
		193.7,157.1 199.9,156.2 	"/>
</g>
<rect class="st1" width="355" height="177.5"/>
<g>
	<text transform="matrix(1 0 0 1 110.1285 41.963)"><tspan x="0" y="0" class="st0 st2 st3">Electro_</tspan><tspan x="-49.3" y="28.8" class="st0 st2 st3">acupuntura y</tspan><tspan x="-58" y="57.7" class="st0 st2 st3">Rehabilitacion </tspan><tspan x="23.8" y="86.5" class="st0 st2 st3">física</tspan></text>
</g>
</svg>
